# xmcd CD database file generated by OrangeCD 5.2
#
# Track frame offsets:
#	150
#	11129
#	27396
#	42115
#	55745
#	68293
#	91399
#	120281
#	141810
#	159721
#	180570
#	198698
#	218054
#	230935
#	249239
#	267453
#	289013
#	315630
#
# Disc length: 4555 seconds
#
# Revision: 0
# Processed by: cddbd v1.5.2PL0 Copyright (c) Steve Scherf et al.
# Submitted via: OrangeCD 5.2
#
DISCID=fe11c912
DTITLE=Aretha Franklin - Vintage Aretha
DYEAR=2006
DGENRE=R&B - Aretha Franklin
TTITLE0=Respect
TTITLE1=Spanish Harlem
TTITLE2=Rock Steady
TTITLE3=Don't Play That Song
TTITLE4=A Natural Woman (You Make Me Fell Like)
TTITLE5=Jumpin' Jack Flash
TTITLE6=Rock-A-Lott
TTITLE7=Who's Zoomin' Who
TTITLE8=Call Me
TTITLE9=Doctor's Orders
TTITLE10=Day Dreaming
TTITLE11=Jump To It
TTITLE12=Chain Of Fools
TTITLE13=I Knew You Where Waiting (For Me)
TTITLE14=This Girl's In Love With You
TTITLE15=If Ever A Love There Was
TTITLE16=Freeway Of Love
TTITLE17=Jimmy Lee
EXTD=
EXTT0=
EXTT1=
EXTT2=
EXTT3=
EXTT4=
EXTT5=
EXTT6=
EXTT7=
EXTT8=
EXTT9=
EXTT10=
EXTT11=
EXTT12=
EXTT13=
EXTT14=
EXTT15=
EXTT16=
EXTT17=
PLAYORDER=
